<svg xmlns="http://www.w3.org/2000/svg" xmlns:xlink="http://www.w3.org/1999/xlink" width="64" zoomAndPan="magnify" viewBox="0 0 48 48" height="64" preserveAspectRatio="xMidYMid meet" version="1.0"><defs><g/><clipPath id="5d3fd69a1d"><path d="M 0.488281 0 L 47.507812 0 L 47.507812 47.019531 L 0.488281 47.019531 Z M 0.488281 0 " clip-rule="nonzero"/></clipPath></defs><g clip-path="url(#5d3fd69a1d)"><path fill="#ffffff" d="M 0.488281 0 L 47.511719 0 L 47.511719 54.367188 L 0.488281 54.367188 Z M 0.488281 0 " fill-opacity="1" fill-rule="nonzero"/><path fill="#ffffff" d="M 0.488281 0 L 47.511719 0 L 47.511719 47.019531 L 0.488281 47.019531 Z M 0.488281 0 " fill-opacity="1" fill-rule="nonzero"/><path fill="#ffffff" d="M 0.488281 0 L 47.511719 0 L 47.511719 47.019531 L 0.488281 47.019531 Z M 0.488281 0 " fill-opacity="1" fill-rule="nonzero"/></g><g fill="#f77f00" fill-opacity="1"><g transform="translate(21.44736, 33.493813)"><g><path d="M -0.617188 0 L 2.785156 0 L 2.785156 -0.410156 C 1.789062 -0.644531 1.613281 -1.496094 2.402344 -3.457031 L 4.101562 -7.648438 L 11.925781 -7.648438 L 13.683594 -3.429688 C 14.503906 -1.496094 14.914062 -0.734375 13.945312 -0.410156 L 13.945312 0 L 19.277344 0 L 19.277344 -0.410156 C 18.605469 -0.734375 17.84375 -1.496094 17.023438 -3.429688 L 9.757812 -20.742188 L 6.886719 -19.453125 L 7.265625 -18.632812 C 7.53125 -18.105469 7.558594 -17.636719 7.324219 -17.050781 L 1.847656 -3.457031 C 1.054688 -1.496094 0.265625 -0.734375 -0.617188 -0.410156 Z M 4.277344 -8.117188 L 7.941406 -17.167969 L 11.71875 -8.117188 Z M 4.277344 -8.117188 "/></g></g></g><g fill="#f77f00" fill-opacity="1"><g transform="translate(7.209466, 29.984123)"><g><path d="M -2.0625 -16.5 C -1.25 -16.84375 -0.539062 -17.015625 0.0625 -17.015625 C 0.664062 -17.015625 1.195312 -16.957031 1.65625 -16.84375 C 2.113281 -16.726562 2.582031 -16.535156 3.0625 -16.265625 C 3.550781 -16.003906 4.003906 -15.679688 4.421875 -15.296875 C 5.222656 -14.535156 5.90625 -13.675781 6.46875 -12.71875 L 10.765625 -4.625 L 17.015625 -15.390625 L 17.21875 -15.390625 L 19.453125 -2.71875 C 19.796875 -0.757812 20.394531 0.789062 21.25 1.9375 C 22.09375 3.101562 23.253906 3.6875 24.734375 3.6875 C 24.835938 3.6875 24.929688 3.6875 25.015625 3.6875 L 25.015625 3.90625 C 24.222656 4.113281 23.445312 4.21875 22.6875 4.21875 C 21.132812 4.21875 19.71875 3.609375 18.4375 2.390625 C 17.207031 1.222656 16.367188 -0.476562 15.921875 -2.71875 L 14.875 -8.984375 L 10.8125 -1.953125 C 10.269531 -1.054688 9.988281 -0.257812 9.96875 0.4375 L 9.78125 0.4375 L 4.421875 -9.734375 L 3.359375 -1.125 C 3.316406 -0.789062 3.460938 -0.523438 3.796875 -0.328125 C 3.921875 -0.234375 4.054688 -0.1875 4.203125 -0.1875 L 4.546875 -0.1875 L 4.546875 0 L 0.046875 0 L 0.046875 -0.21875 L 0.390625 -0.21875 C 0.765625 -0.21875 1.097656 -0.328125 1.390625 -0.546875 C 1.679688 -0.773438 1.863281 -1.082031 1.9375 -1.46875 L 3.40625 -11.75 C 2.757812 -12.894531 2.019531 -13.910156 1.1875 -14.796875 C 0.25 -15.804688 -0.726562 -16.3125 -1.75 -16.3125 C -1.84375 -16.3125 -1.9375 -16.304688 -2.03125 -16.296875 Z M -2.0625 -16.5 "/></g></g></g></svg>