<?xml version="1.0" encoding="UTF-8" standalone="no"?>
<svg
   version="1.1"
   width="53.790001"
   height="67.121399"
   id="svg54"
   viewBox="0 0 53.79 67.121399"
   sodipodi:docname="metroart.svg"
   inkscape:version="1.1.2 (0a00cf5339, 2022-02-04)"
   xmlns:inkscape="http://www.inkscape.org/namespaces/inkscape"
   xmlns:sodipodi="http://sodipodi.sourceforge.net/DTD/sodipodi-0.dtd"
   xmlns="http://www.w3.org/2000/svg"
   xmlns:svg="http://www.w3.org/2000/svg">
  <defs
     id="defs58" />
  <sodipodi:namedview
     id="namedview56"
     pagecolor="#ffffff"
     bordercolor="#666666"
     borderopacity="1.0"
     inkscape:pageshadow="2"
     inkscape:pageopacity="0.0"
     inkscape:pagecheckerboard="0"
     showgrid="false"
     inkscape:zoom="7.5376847"
     inkscape:cx="35.554684"
     inkscape:cy="31.176682"
     inkscape:window-width="1920"
     inkscape:window-height="1003"
     inkscape:window-x="1366"
     inkscape:window-y="40"
     inkscape:window-maximized="1"
     inkscape:current-layer="svg54"
     showguides="false"
     width="340.1575px"
     fit-margin-top="0"
     fit-margin-left="0"
     fit-margin-right="0"
     fit-margin-bottom="0" />
  <g
     id="g1749"
     transform="matrix(0.00445072,0,0,-0.00694778,0.381326,67.1214)">
    <path
       d="M 12000,0 H 0 V 8500 H 12000 V 0"
       style="fill:#000000;fill-opacity:1;fill-rule:nonzero;stroke:none"
       id="path1751" />
    <path
       d="m 12000,8500 h -262.6 c -106.3,-30.31 -210.9,-67.87 -313.5,-112.79 -270.7,-118.54 -519.2,-289 -801.8,-379.93 -577.3,-185.74 -1164.95,100.18 -1711.76,274.86 C 8572.13,8390.18 8228.2,8464.48 7878.61,8500 H 6974.55 C 6059.29,8397.84 5238.76,7990.62 4349.36,7744.9 3827.13,7600.63 3283.06,7531.57 2748.82,7658.46 2158.6,7798.64 1735.12,8195.4 1230.92,8500 h -171.83 c 60.52,-30.96 120.22,-65.76 178.99,-104.73 497.96,-330.26 903.85,-753.82 1503.8,-903.03 536.2,-133.36 1084.2,-60.53 1605.11,98.71 1000.53,305.86 1896.94,829.22 2968.71,852.1 546.7,11.66 1081.31,-80.63 1595.7,-263.97 541.36,-192.95 1132.6,-516.98 1712.4,-310.3 280.8,100.1 520.4,286.85 786.2,417.89 188.4,92.91 386.2,158.01 590,194.37 V 8500"
       style="fill:#61e6f5;fill-opacity:1;fill-rule:nonzero;stroke:none"
       id="path1753" />
    <path
       d="m 6072.58,8500 c -577.1,-139.01 -1143.57,-327.78 -1730.24,-454.91 -528.1,-114.44 -1070.52,-175.69 -1603.75,-53.68 -417.15,95.44 -771.61,304 -1133.75,508.59 h -202.09 c 437.61,-261.8 839.96,-564.28 1352.92,-680.59 532.33,-120.7 1072.75,-55.15 1595.93,74.57 721.8,178.96 1406.28,457.5 2125.12,606.02 h -404.14"
       style="fill:#0367a6;fill-opacity:1;fill-rule:nonzero;stroke:none"
       id="path1755" />
    <path
       d="m 11220.3,8500 c -206.4,-82.83 -410.3,-173.71 -626.9,-225.8 -558.5,-134.38 -1122.86,73.41 -1663.53,206.8 -26.31,6.49 -52.64,12.76 -78.96,19 h -430.27 c 163.69,-32.41 326.45,-72.02 488.49,-117.99 551.07,-156.34 1136.27,-406.47 1710.77,-240.46 284.6,82.23 541.4,236.68 816.7,343.18 13.5,5.25 27.1,10.24 40.8,15.27 h -257.1"
       style="fill:#0367a6;fill-opacity:1;fill-rule:nonzero;stroke:none"
       id="path1757" />
    <path
       d="m 5138.69,8500 c -263.65,-55.8 -528.02,-109.35 -794.77,-152.25 -529.02,-85.07 -1064.59,-139.61 -1594.96,-31.05 -203.98,41.76 -397.56,107.17 -586.73,183.3 h -319.24 c 287.51,-144.63 578.57,-278.39 901.31,-348.39 531.79,-115.36 1070.65,-57.46 1599.32,42.52 444.06,83.98 879.17,200.46 1315.65,305.87 h -520.58"
       style="fill:#50d4f2;fill-opacity:1;fill-rule:nonzero;stroke:none"
       id="path1759" />
    <path
       d="m 9295.13,8500 c 427.66,-96.3 863.77,-181.98 1295.07,-90.71 121.2,25.65 239.2,56.98 355.5,90.71 H 9295.13"
       style="fill:#50d4f2;fill-opacity:1;fill-rule:nonzero;stroke:none"
       id="path1761" />
    <path
       d="m 2643.72,8500 c 35.76,-8.29 71.74,-16 107.99,-22.99 529.1,-102 1061.94,-50.74 1591.09,19.87 7.58,1.01 15.14,2.1 22.71,3.12 H 2643.72"
       style="fill:#346272;fill-opacity:1;fill-rule:nonzero;stroke:none"
       id="path1763" />
    <path
       d="m 12000,7613.31 c -307.8,-65.73 -587.9,-237.2 -791.6,-480.25 -208.5,-248.85 -365,-581.97 -648.2,-757.88 C 9971.57,6009.7 9305.14,6771.89 8866.44,7087.74 8392.71,7428.81 7790.67,7569.35 7213.35,7503.08 6072.77,7372.17 5263.05,6466.51 4301.22,5932.29 3795.51,5651.4 3207.9,5510.87 2643.89,5706.31 c -323.41,112.06 -591.58,346.25 -798.36,615.53 -193.82,252.42 -309.15,550.03 -492.64,808 C 1015.86,7603.67 521.977,7771.05 0,7725.19 v -164.55 c 496.992,30.98 955.547,-118.84 1302.01,-616.73 178.96,-257.17 293.1,-550.91 487.58,-798.98 206.28,-263.12 475.83,-485.9 795.8,-590.21 574.02,-187.11 1158.91,-20.52 1675.48,247.1 484.04,250.76 943.98,550.75 1402.6,845.13 482.54,309.74 950.96,616.18 1525.48,718.23 578.03,102.67 1188.77,-32.02 1667.56,-373.04 438.39,-312.23 1089.89,-1072.54 1682.79,-743.73 292.1,162.01 455.6,491.7 662.8,739.77 205.8,246.37 486.8,425.05 797.9,496.6 v 128.53"
       style="fill:#61e6f5;fill-opacity:1;fill-rule:nonzero;stroke:none"
       id="path1765" />
    <path
       d="m 12000,7825.09 c -295.2,-58.57 -567.4,-212.39 -769.9,-439.43 -215.8,-241.89 -370.7,-566.76 -644.4,-751.54 -582.6,-393.38 -1260.94,332.9 -1710.16,647.04 -472.56,330.47 -1065.94,476.8 -1638.61,453.17 -583.96,-24.09 -1093.31,-239.17 -1577.67,-557 -458.31,-300.74 -856.24,-686.7 -1332.77,-960.63 -496,-285.12 -1086.57,-389.03 -1636.33,-189.84 -324.19,117.46 -590.77,357.07 -800.96,626.41 -194.16,248.79 -316.35,542.35 -507.2,792.06 -354.81,464.22 -859.195,606.55 -1382,544.02 v -100.24 c 528.871,62.07 1036.35,-90.7 1383.43,-570.69 186.66,-258.14 301.88,-558.87 493.89,-814.87 205.9,-274.54 471.32,-519.09 796.78,-638.01 554.12,-202.49 1146.93,-88.48 1643.01,203.63 976.07,574.73 1699.39,1502.75 2908.56,1571.4 576.65,32.74 1175.18,-118.12 1645.13,-459.68 439.63,-319.52 1123.58,-1084.57 1707,-682.58 275.2,189.63 424.8,524.99 635.7,775.32 202.2,239.87 481.7,404.26 786.5,464.5 v 86.96"
       style="fill:#0367a6;fill-opacity:1;fill-rule:nonzero;stroke:none"
       id="path1767" />
    <path
       d="m 12000,7968.08 c -272.9,-56.35 -527,-188.1 -730.2,-383.78 -226.6,-218.21 -400.6,-513.69 -675.7,-677.01 -583.8,-346.73 -1237.47,280.31 -1710.14,575.26 -481.64,300.54 -1064.35,431.09 -1628.74,409.52 -572.4,-21.87 -1081,-215.48 -1570.65,-504.77 C 5223.82,7115.08 4811.61,6765.23 4333.8,6521.38 3830.37,6264.45 3250.58,6168.71 2704.31,6354.32 2043.15,6578.97 1780.54,7171.53 1352.05,7659.34 986.215,8075.82 500.75,8201.07 0,8147.5 v -81.79 c 512.781,58.19 1008.71,-75.73 1369.79,-517.21 416.76,-509.57 658.97,-1127.42 1330.82,-1363.66 548.44,-192.85 1132.43,-92.11 1632.5,179.07 477.18,258.78 881.65,627.93 1340.81,914.84 486.69,304.11 995.38,508.82 1573.4,532.11 568.13,22.87 1156.13,-115.21 1632.94,-430.88 461.27,-305.4 1126.04,-981.42 1709.84,-611.5 274.4,173.85 438.7,484.77 659.6,714.98 203.1,211.58 466.2,354.3 750.3,412.02 v 72.6"
       style="fill:#50d4f2;fill-opacity:1;fill-rule:nonzero;stroke:none"
       id="path1769" />
    <path
       d="m 12000,8110.28 c -251.2,-52.65 -487.7,-164.07 -689.2,-328.64 -238,-194.26 -431.5,-459.07 -708.2,-602.2 -583.9,-302.05 -1217.62,232.86 -1712.25,504.02 -491.82,269.61 -1065.02,385.5 -1623.3,365.99 C 6121.04,8009.38 5323.76,7273.33 4325.98,6825.92 3816.03,6597.25 3243.48,6509.2 2700.71,6681.85 2060.44,6885.53 1758.73,7430.08 1308.91,7874.02 937.863,8240.21 475.438,8350.83 0,8307.35 v -80.44 c 488.016,48.52 961.945,-69.21 1330.6,-460.76 439.03,-466.3 720.79,-1034.88 1371.42,-1248.84 544.47,-179.06 1120.75,-87.41 1627.52,155.51 478.99,229.6 899.06,560.7 1361.95,818.83 492.88,274.84 1001.93,457.94 1569.53,478.58 561.39,20.41 1139.51,-102.95 1626.27,-388.55 483.69,-283.8 1127.21,-864.84 1711.21,-540.31 275.9,153.26 459.5,433.68 691.7,640.14 202.7,180.16 447.9,301.63 709.8,356.37 v 72.4"
       style="fill:#346272;fill-opacity:1;fill-rule:nonzero;stroke:none"
       id="path1771" />
    <path
       d="m 12000,8255.5 c -232.6,-47.39 -454,-140.25 -652.9,-276.02 -248.9,-170 -461.6,-403.78 -740.2,-527.62 -582.2,-258.84 -1199.61,188.96 -1713.53,432.37 -501.11,237.32 -1062.28,338.6 -1614.84,321.86 C 6164.55,8172.33 5324.13,7517.61 4323.74,7128.56 3808.37,6928.14 3244.04,6847.53 2704.52,7007.07 2083.05,7190.84 1741.23,7688.51 1270.3,8086.58 894.992,8403.82 452.836,8500.16 0,8464.49 v -79.65 c 463.957,39.29 916.023,-64.34 1289.27,-406.27 460.27,-421.64 781.62,-943.07 1412.37,-1136.87 541.16,-166.27 1109.78,-81.85 1622.54,132.96 999.89,418.88 1818.22,1113.82 2948.58,1151.76 555.26,18.64 1123.21,-90.46 1619.52,-344.23 504.53,-257.97 1129.72,-749.39 1713.02,-468.79 277.5,133.53 480.6,383.12 724,565.48 200.3,150.09 429.1,252.21 670.7,302.45 v 74.17"
       style="fill:#4e92aa;fill-opacity:1;fill-rule:nonzero;stroke:none"
       id="path1773" />
    <path
       d="m 12000,8404.63 c -216.9,-41.02 -425.9,-117.01 -621.2,-226.5 -259.5,-145.47 -490.8,-347.74 -771.7,-453.18 -580.9,-218.11 -1181.52,150.84 -1713.74,360.45 -510.27,200.97 -1055.89,293.01 -1603.85,277.96 -1084.09,-29.79 -1962.56,-600 -2963.6,-931.07 -519.61,-171.85 -1075.12,-244.97 -1611.44,-98.91 -604.91,164.73 -986.94,615.77 -1477.94,966 -118.55,84.55 -241.647,150.65 -368.112,200.62 H 605.484 c 227.235,-52.64 445.526,-151.28 647.636,-308.74 480.99,-374.72 842.68,-849.45 1455.7,-1023.72 537.95,-152.93 1097.97,-76.03 1615.58,110.38 1000.99,360.5 1860.61,973.71 2959.6,1005.49 549.48,15.89 1104.91,-79.46 1609.67,-300.24 522.19,-228.4 1133.13,-635.18 1713.83,-397 279.6,114.67 501.6,333.01 755.8,490.96 197.2,122.54 412.2,207 636.7,251.36 v 76.14"
       style="fill:#68c3e3;fill-opacity:1;fill-rule:nonzero;stroke:none"
       id="path1775" />
    <path
       d="m 12000,6156.64 c -389.8,-141.66 -708.5,-420.25 -983.1,-725.31 -245.9,-273.18 -495.4,-520.17 -890.5,-489.14 -343.73,27 -647.06,305.36 -899.62,518.62 -250.85,211.81 -496.44,415.8 -776.23,588.75 -552.74,341.67 -1362.41,476.28 -1869.14,-31.8 -452.31,-453.52 -757.49,-1119.34 -1382.89,-1371.2 -299.56,-120.64 -615.76,-82.64 -924.85,-29.98 -335.92,57.23 -655.96,52.21 -990.46,-17.28 C 2657.3,4469.27 2081.63,4127.62 1426.62,4157.82 824.16,4185.6 608.113,4605.05 378.961,5100.2 282.949,5307.66 155.992,5486.4 0,5623.04 v -236.32 c 121.902,-130.54 222.039,-289.38 300.324,-467.33 217.481,-494.33 437.164,-897.59 1033.056,-906.03 660.88,-9.36 1234.04,345.17 1869.32,467.01 343.42,65.87 669.36,59.33 1009.71,-16.35 311.42,-69.24 633.75,-124.66 941.26,-4.54 643.05,251.21 925.14,954.62 1358.01,1436.94 489.62,545.56 1320.31,418.13 1880.96,75.82 282.75,-172.63 530.61,-376.33 781.99,-591.29 255.55,-218.53 555.69,-508.21 902.47,-550.81 403.1,-49.53 662.1,189.02 916.2,466.76 283.7,310.04 607.8,598.04 1006.7,745.32 v 114.42"
       style="fill:#61e6f5;fill-opacity:1;fill-rule:nonzero;stroke:none"
       id="path1777" />
    <path
       d="m 12000,6386.8 c -357.3,-124.37 -661,-370.21 -910.3,-651.3 -244.4,-275.5 -491.7,-584.1 -897.4,-568.19 -317.95,12.47 -607.59,241.41 -845.37,434.88 -252.6,205.54 -492.9,411.1 -767.05,588 -561.43,362.26 -1350.01,507.66 -1898.41,34.69 -459.21,-396.04 -816.26,-970.95 -1390.13,-1214.89 -286.56,-121.81 -589.25,-121.99 -894.63,-101.6 -303.49,20.26 -593.37,-5.37 -890.03,-74.41 C 2877.63,4687.58 2270.89,4345.9 1607.12,4428.58 1011.76,4502.73 798.668,4938.32 555.391,5425.94 420.465,5696.38 232.301,5910.12 0,6045.9 v -208.26 c 190.305,-136.75 345.117,-330.69 459.277,-565.81 241.231,-496.8 454.758,-932.24 1063.853,-979.16 648.56,-49.95 1226.45,279.14 1842.85,417.85 325.69,73.29 639.79,89.69 970.58,50.84 305.99,-35.95 616.01,-57.07 907.74,64.38 608.65,253.39 934.76,884.79 1404.53,1309.43 521.35,471.27 1309.97,332.14 1855.3,-8.96 277,-173.26 520.48,-377.62 770.89,-586.43 250.16,-208.61 556.32,-476.15 897.28,-487.67 386.8,-13.07 627.5,241.56 865.9,510.58 266.3,300.46 580.2,570.41 961.8,706.48 v 117.63"
       style="fill:#0367a6;fill-opacity:1;fill-rule:nonzero;stroke:none"
       id="path1779" />
    <path
       d="m 12000,6622.61 c -343.8,-112.87 -639.6,-342.83 -875.4,-615.02 -234.1,-270.19 -459.9,-585.5 -847.8,-612.59 -313.29,-21.88 -609.72,191.14 -844.58,376.14 -252.8,199.13 -490.17,406.33 -759.2,584.25 -544.93,360.4 -1290.28,505.98 -1861.51,114.54 C 6320.05,6133.16 5936.02,5620.35 5389.47,5367.08 4863.81,5123.49 4241.88,5203.4 3687.47,5047.28 3080.33,4876.31 2470.58,4564.41 1823.34,4684.83 1215.08,4797.99 1002.17,5266.23 733.27,5761.08 534.965,6126.02 282.859,6328.86 0,6421.95 v -184.93 c 268.285,-126.53 487.34,-349.15 641.75,-645.73 255.613,-490.96 468.24,-942.54 1069.94,-1036 655.79,-101.86 1264.43,225.8 1882.71,383.99 288.61,73.84 572.04,110.15 869.49,108.43 300.6,-1.74 596.58,14.37 875.43,137.93 560.17,248.22 930.96,792.17 1406.77,1159.37 560.8,432.78 1327.78,287.04 1881.23,-74.41 271.57,-177.35 510.31,-383.7 762.92,-586.05 236.98,-189.82 528.28,-408.71 844.66,-405.87 396.6,3.57 634.6,318.46 872.7,590.18 242.4,276.63 542,514.56 892.4,633.31 v 120.44"
       style="fill:#50d4f2;fill-opacity:1;fill-rule:nonzero;stroke:none"
       id="path1781" />
    <path
       d="m 12000,6863.31 c -340.5,-103.47 -633.5,-325.93 -861.3,-597.69 -211.2,-251.94 -414.4,-558.9 -757.6,-634.92 -332.7,-73.72 -655.83,142.53 -906.74,337.74 -253.26,197.03 -492.25,405.79 -760.01,584.18 -517.26,344.59 -1208.78,459.4 -1775.42,167.93 C 6412.42,6449.72 6005.2,5989.07 5479.2,5720.63 4977.49,5464.6 4383.18,5430.27 3852.23,5250.72 3279.32,5056.98 2688.64,4790.6 2071.19,4926.33 1415.71,5070.42 1206.09,5604.76 891.68,6123.78 651.504,6520.25 342.785,6710.05 0,6769.97 v -174.12 c 317.508,-78.07 601.617,-279.48 822.961,-670.94 282.089,-498.9 495.789,-983.5 1110.379,-1115.49 638.7,-137.17 1248.73,158.05 1845.08,341.97 540.68,166.75 1146.81,143.36 1658.89,391.5 535.01,259.25 926.22,746.67 1435.32,1048.66 584.12,346.48 1299.85,209.35 1840.8,-152.84 266.72,-178.58 503.08,-386.59 756.26,-582.64 235.34,-182.24 533.51,-385.44 845.11,-347.5 378.3,46.03 595.5,366.85 824.7,634.13 230,268.13 522.6,490.67 860.5,597.8 v 122.81"
       style="fill:#346272;fill-opacity:1;fill-rule:nonzero;stroke:none"
       id="path1783" />
    <path
       d="m 12000,7108.86 c -330.8,-91.27 -619.3,-299.06 -837.7,-563.52 -205.5,-248.81 -394.1,-565.7 -717.2,-674.48 -327.3,-110.16 -656.36,84.93 -911.76,276.95 -254.76,191.52 -492.09,402 -756.23,581.86 -500.84,341.05 -1158.77,456.49 -1731.46,239.79 -548.79,-207.65 -978.82,-609.99 -1484.06,-893.7 -479.92,-269.5 -1027.16,-416.23 -1535.73,-621.69 -550.49,-222.39 -1139.7,-451.96 -1739.27,-287.96 -303.47,83.01 -569,272.91 -765.97,517.65 -188.66,234.42 -293.63,515.29 -456.43,765.67 C 779.023,6888.03 407.957,7064.91 0,7089.81 v -160.88 c 374.875,-43.29 714.074,-227.7 976.25,-645.52 329.19,-524.62 538.06,-1074.27 1200.22,-1240.02 607.53,-152.07 1200.29,99.27 1761,306.43 519.56,191.96 1092.25,282.3 1582.83,544.63 515.42,275.61 934.3,707.68 1472.45,947.68 570.58,254.47 1245.21,139.63 1754.55,-203.25 265.92,-179.01 503.89,-388.64 757.76,-582.94 252.71,-193.4 578.64,-399.22 908.74,-307.69 333.2,92.41 529.2,404.38 737.1,654.52 223,268.12 513.6,483.4 849.1,580.88 v 125.21"
       style="fill:#4e92aa;fill-opacity:1;fill-rule:nonzero;stroke:none"
       id="path1785" />
    <path
       d="m 12000,7358.37 c -322.6,-79.12 -608,-272.41 -819.1,-530 -203.2,-247.85 -377.6,-573.75 -681.5,-713.09 -598.69,-274.43 -1236.52,490.21 -1677.13,797.42 -484.86,338.06 -1114.28,458.01 -1687.55,314.61 -566.5,-141.71 -1019.61,-483.65 -1508.4,-784.6 -463.45,-285.34 -953.66,-536.78 -1444.53,-770.53 -527.9,-251.37 -1116.19,-437.14 -1696.71,-250.32 -314.06,101.07 -581.07,315.86 -783.15,574.58 -191.3,244.92 -302.41,535.39 -478.39,789.44 C 896.484,7258.03 467.184,7415.41 0,7402.98 v -159.09 c 438.547,-6.49 839.5,-174.4 1146.19,-630.98 169.52,-252.37 277.7,-538.09 467.87,-777.83 199.67,-251.74 466.17,-454.11 775.11,-546.18 590.34,-175.93 1178.69,32.99 1718.01,269.78 499.1,219.14 1019.18,418.58 1490.11,695.62 496.42,292.03 937.29,665.09 1495.28,840.71 573.4,180.46 1216.38,63.5 1709.09,-275.91 443.61,-305.58 1068.9,-1066.86 1671.34,-828.41 313.5,124.1 495.2,445.52 699,693.57 214.6,261.03 501.4,461.64 828,546.92 v 127.19"
       style="fill:#68c3e3;fill-opacity:1;fill-rule:nonzero;stroke:none"
       id="path1787" />
    <path
       d="M 0,3287.32 C 35.9688,3234.09 70.2148,3179.19 103.02,3123.23 70.5117,3189.07 36.3125,3254.09 0,3317.43 v -30.11"
       style="fill:#61e6f5;fill-opacity:1;fill-rule:nonzero;stroke:none"
       id="path1789" />
    <path
       d="m 103.02,3123.23 c 5.933,-12.02 11.855,-24.05 17.683,-36.12 71.113,-147.33 144.106,-313.4 251.985,-444.26 -71.575,105.97 -129.415,223.88 -186.122,330.58 -26.832,50.49 -54.664,100.53 -83.546,149.8"
       style="fill:#61e6f5;fill-opacity:1;fill-rule:nonzero;stroke:none"
       id="path1791" />
    <path
       d="m 12000,4905.52 c -51,-13.82 -102.4,-30.01 -154.2,-49.01 -434.9,-159.53 -780.3,-480.72 -1103.5,-802.94 -310.6,-309.66 -642,-565.58 -1108.24,-475.3 -382.66,74.1 -698.75,391.41 -984.16,639.21 -266.74,231.58 -531.96,437.16 -839.38,611.63 -627.36,356.06 -1414.33,57.79 -1694.4,-606.63 -240.44,-570.4 -412.98,-1486.34 -1094.25,-1699.87 -349.23,-109.45 -691.79,69.56 -991.3,231.58 -298.16,161.27 -621.82,251.25 -961.5,250.63 -667.56,-1.24 -1246.18,-387.61 -1882.38,-543.22 -225.155,-55.06 -480.667,-88.09 -681.6,55.51 -49.774,35.57 -93.356,78.37 -132.402,125.74 60.359,-89.37 130.48,-170.25 218.011,-228.67 207.332,-138.38 466.161,-95.61 691.961,-35.29 624.55,166.83 1207.94,533.22 1869.4,512.11 335.84,-10.72 652.52,-110.25 945.66,-272.35 293.11,-162.07 630.89,-338.09 974.44,-232.12 665.82,205.39 845.49,1098.27 1082.35,1655.3 270.85,636.99 1024.88,985.55 1643.65,632.25 308.05,-175.9 572.94,-383.3 841.54,-614.44 286.32,-246.38 609.55,-554.35 996.69,-610.2 463.81,-66.91 790.11,201.8 1095.71,509.55 322,324.23 668.5,645.32 1106.5,799.13 54.2,19.04 108,35.03 161.4,48.5 v 98.9"
       style="fill:#61e6f5;fill-opacity:1;fill-rule:nonzero;stroke:none"
       id="path1793" />
    <path
       d="m 12000,5094.41 c -42.3,-13.46 -84.9,-28.62 -127.7,-45.82 -426.6,-171.32 -767.5,-492.94 -1090.6,-811.43 -318.6,-314.04 -659.4,-544.7 -1126.36,-408.77 -372.01,108.29 -670.5,443.99 -953.55,695.46 -261.42,232.26 -525.86,433.64 -830.24,605.62 C 7230.72,5491.54 6377.12,5302 6077.69,4582.74 5830.27,3988.42 5671.42,3030.37 4960.45,2804.4 c -361.12,-114.78 -712.64,72.44 -1024.27,235.43 -308.12,161.16 -645.5,233.37 -992.46,212.24 -679.51,-41.38 -1249.83,-464.86 -1910.08,-599.36 -225.171,-45.87 -475.941,-61.8 -666.66,90.7 C 186.563,2887.68 99.8477,3123.04 16.5469,3330.43 11.1094,3343.96 5.57422,3357.45 0,3370.92 v -28.16 c 22.4648,-46.04 43.9766,-92.69 64.6523,-139.65 89.8787,-204.18 183.0357,-439.85 366.7147,-579.16 195.442,-148.23 448.25,-124.03 673.183,-73.71 648.06,144.98 1222.28,550.19 1895.88,571.92 343.34,11.08 673.81,-69.91 976.94,-230.84 305.65,-162.26 652.76,-344.83 1007.76,-232.45 696.13,220.37 862.01,1157.68 1106.02,1740.4 289.48,691.3 1109.04,938.02 1743.8,579.11 306.25,-173.17 571.32,-376.86 835.71,-608.82 284.34,-249.48 592.39,-575.89 970.1,-667.11 467.24,-112.86 803.44,130.62 1118.24,442.31 323.6,320.32 667.2,641.65 1098.3,806.86 47.9,18.36 95.4,34.34 142.7,48.15 v 94.64"
       style="fill:#0367a6;fill-opacity:1;fill-rule:nonzero;stroke:none"
       id="path1795" />
    <path
       d="m 12000,5271.85 c -29.8,-11.35 -59.7,-23.66 -89.8,-36.99 -415.2,-184.26 -747.9,-506.94 -1067.5,-822.36 -323.8,-319.43 -672.7,-524.83 -1134.81,-344.59 -359.11,140.09 -634.42,493.39 -914.12,749.6 -253.8,232.48 -515.35,427.92 -813.81,598.25 C 7333.63,5784.61 6411.91,5722.07 6092.75,4947.69 5840.25,4335.04 5696.36,3340.76 4958.5,3109.22 4585.03,2992.03 4226.17,3191.98 3904.45,3358.3 3587.63,3522.09 3237.26,3579.11 2883.84,3540.78 2194.23,3465.99 1628.64,3012.51 945.98,2895.64 718.758,2856.73 468.992,2853.81 283.926,3013.14 140.996,3136.2 63.2148,3313.19 0,3489.12 v -77.52 c 72.5586,-196.13 154.574,-405.42 318.121,-541.78 187.27,-156.14 436.977,-147.22 662.883,-105.12 671.646,125.18 1239.126,564.65 1923.886,623.42 350.26,30.06 694.16,-34.28 1006.81,-196.34 316.93,-164.27 672.33,-357.1 1039.49,-240.72 724.66,229.71 876.4,1206.42 1126.67,1810.61 309.17,746.41 1196.11,876.1 1840.87,510.77 301.87,-171.04 565.17,-369.76 823.14,-602.2 281.54,-253.67 569.38,-598.18 935.32,-722.41 465.31,-157.95 810.21,60.29 1131.81,376.84 321.9,316.87 659.1,638.93 1080.6,816.45 37,15.59 73.8,29.53 110.4,42.23 v 88.5"
       style="fill:#50d4f2;fill-opacity:1;fill-rule:nonzero;stroke:none"
       id="path1797" />
    <path
       d="m 12000,5483.9 c -20.1,-7.83 -40.2,-15.95 -60.4,-24.7 -408.8,-177.12 -737.8,-490.54 -1048.3,-803 -309.8,-311.84 -643.5,-528.68 -1096.26,-363.83 -351.67,128.05 -628.61,469.36 -900.8,716.76 -250.91,228.05 -508,423.64 -801.24,593.24 C 7461.62,5967.53 6535.26,5972.14 6170.05,5227.49 5877.34,4630.65 5689.36,3706.51 4968.6,3472.81 4602.75,3354.19 4245.79,3524.74 3917.47,3671.28 3596.68,3814.46 3250.49,3851.6 2903.82,3804.46 2219.9,3711.46 1652.48,3268.3 962.598,3189.49 407.094,3126.04 170.117,3450.76 0,3929.53 v -275.51 c 62.0703,-178.19 137.641,-357.19 279.957,-484.43 182.074,-162.79 430.27,-169.1 659.141,-135.3 689.152,101.78 1254.492,556.35 1944.172,642.19 352.33,43.85 703.58,-4.22 1023.27,-161.99 325.67,-160.72 685.16,-353.32 1058.33,-235.43 736.72,232.73 893.09,1209.1 1159.56,1819.95 337.75,774.24 1273.2,792.11 1914.92,423.46 295.55,-169.78 554.93,-364.22 806.29,-595.23 276.57,-254.2 548.04,-606.37 902.37,-747.64 457.69,-182.49 802.99,22.53 1122.59,340.46 315.8,314.02 645.6,633.9 1056.5,818.1 24.4,10.93 48.7,21.01 72.9,30.61 v 115.13"
       style="fill:#346272;fill-opacity:1;fill-rule:nonzero;stroke:none"
       id="path1799" />
    <path
       d="m 12000,5710.15 c -16.7,-6.32 -33.4,-12.86 -50.1,-19.81 -405.2,-168.16 -732,-473.39 -1032.7,-785.76 -291.6,-302.81 -618.2,-525.91 -1054.34,-383.66 -322.73,105.26 -593.78,403.26 -842.95,624.12 -270.74,240 -544.2,455.11 -856.64,637.94 -599.13,350.61 -1460.94,358.34 -1871.11,-281.52 -355.38,-554.37 -576.18,-1391.49 -1273.68,-1618.57 -330.53,-107.6 -660.11,-5.99 -973.42,111.01 -343.98,128.46 -690.7,159 -1053.41,99.97 C 2338.4,3987.57 1775.31,3597.06 1107.92,3545.7 533.121,3501.47 293.539,3848.7 105.555,4344.3 74.2383,4426.86 39.1563,4506.92 0,4583.34 v -341.01 c 14.4063,-35.69 28.1914,-71.8 41.2383,-108.34 178.1957,-499.04 423.7927,-833.93 993.8717,-775.51 671.4,68.81 1231.74,477.3 1893.15,579.9 370.75,57.51 723.65,17.06 1069.73,-126.71 314.06,-130.46 648.69,-247.93 986.87,-140 717.2,228.9 911.51,1117.11 1244.31,1694.14 387.41,671.72 1262.4,692.06 1875.91,339.33 315.92,-181.63 591.94,-396.84 862.93,-640.3 252.85,-227.17 519.86,-535.55 844.67,-653.82 441.22,-160.68 780.02,49.76 1081.82,358.41 306.5,313.57 634.3,624.96 1041.8,800.11 21.3,9.15 42.5,17.61 63.7,25.74 v 114.87"
       style="fill:#4e92aa;fill-opacity:1;fill-rule:nonzero;stroke:none"
       id="path1801" />
    <path
       d="m 12000,5930.51 c -6.1,-2.3 -12.3,-4.47 -18.4,-6.85 -400.2,-154.71 -724.4,-448.33 -1013.3,-758.7 -271.7,-291.93 -574.5,-539 -999.04,-434.56 -318.59,78.38 -596.22,355.71 -838.46,564.68 -269.72,232.67 -537.59,448.36 -843.43,631.89 -577.67,346.67 -1410.63,393.92 -1864.33,-179.4 -401.07,-506.81 -672.23,-1253.87 -1334.19,-1481.64 -315.86,-108.68 -636.32,-39.62 -948.29,48.02 -339.99,95.5 -675.18,105.23 -1022.66,41.36 C 2480.16,4238.08 1911.03,3875.59 1250.99,3864 665.609,3853.73 438.719,4231.87 233.238,4723.67 170.086,4874.83 92.6211,5014.02 0,5135.22 v -269.23 c 63.9453,-102.26 119,-213.78 165.848,-331.47 196.293,-493.13 429.207,-855.16 1008.932,-827 664.07,32.26 1230.2,408.2 1876.04,519.37 355.34,61.17 696.51,40.73 1038.81,-71.91 312.93,-102.98 638.14,-188.7 961.59,-80.79 679.83,226.81 926.26,1017.99 1304.51,1549.64 432.39,607.73 1280.82,578.35 1868.83,229.74 309.1,-183.26 579.79,-398.51 850,-634.89 245.56,-214.8 519.96,-502.56 840.53,-594.7 430.61,-123.79 745.31,111.51 1026.91,408.89 294.8,311.43 620.2,611.01 1022.8,772.65 11.8,4.72 23.5,9.17 35.2,13.57 v 111.42"
       style="fill:#68c3e3;fill-opacity:1;fill-rule:nonzero;stroke:none"
       id="path1803" />
    <path
       d="m 12000,3749.55 c -22.6,-4.02 -45.3,-8.39 -68,-13.44 -429.5,-95.38 -738,-415.21 -999.6,-751.08 -232.1,-298.11 -473.2,-704.61 -841.3,-848.72 -723.81,-283.34 -1251.13,698.5 -1796.39,996.94 C 7754.79,3428.76 7240.94,2505.38 7022.04,2119.38 6761.15,1659.31 6440.13,1023.07 5874.88,896.512 5236.25,753.52 4672.18,1373.47 4118.07,1589.21 3453.74,1847.87 2870.29,1635.39 2255.83,1353.04 2015.57,1242.63 1729.12,1112.78 1461.7,1203.48 1229.79,1282.13 1034.13,1513.64 853.902,1671.88 594.977,1899.22 313.191,2117.38 0,2249.28 V 2093 c 318.074,-130.58 605.477,-348.7 869.578,-573.95 183.322,-156.34 383.502,-389.75 617.212,-466.09 268.63,-87.741 553.96,47.49 792.88,160.58 623.06,294.92 1208.97,496.17 1880.58,220.29 558.95,-229.6 1121.47,-837.9 1772.2,-691.459 566.96,127.578 908.07,742.549 1182.58,1202.519 224.42,376.06 732.56,1351.28 1270.97,1063.64 543.29,-290.25 1058.49,-1305.45 1783,-979.44 356.9,160.59 584.2,579.34 810.8,879.02 253.8,335.64 556.6,653.95 983.5,742.41 12.2,2.54 24.5,4.83 36.7,7.07 v 91.96"
       style="fill:#61e6f5;fill-opacity:1;fill-rule:nonzero;stroke:none"
       id="path1805" />
    <path
       d="m 12000,3934.74 c -45.2,-8.01 -90.6,-17.96 -136.4,-30.04 -434.4,-114.67 -752.6,-444.12 -1028.3,-782.61 -242.6,-297.8 -516.9,-680.68 -912.57,-775.73 -730.51,-175.5 -1258.44,766.97 -1831.63,1063.73 -519.77,269.1 -1046.85,-554.12 -1246.78,-933.8 -245.67,-466.53 -524.15,-1149.1 -1099.29,-1274.75 -293.77,-64.17 -584.35,59.39 -832.1,209.64 -299.12,181.42 -587.16,373.48 -922.09,483.72 -634.54,208.84 -1208.03,-1.65 -1791.7,-260.59 -242.01,-107.36 -529.48,-233.82 -797.07,-147.55 -231.96,74.78 -417.992,304.29 -590.718,467.01 C 565.691,2185.19 299.582,2406.38 0,2545.17 v -147.22 c 311.738,-136.58 589.762,-360.47 846.586,-593.14 177.324,-160.65 368.854,-391.58 603.654,-463.58 270.15,-82.85 557.76,49.3 799.81,159.63 590.46,269.15 1163.77,469.94 1803.91,242.74 561.05,-199.14 1123.75,-835.338 1758.92,-695.89 572.52,125.69 869.38,786.65 1124.2,1251.2 201.4,367.18 718.4,1237.73 1233.6,979.77 573.35,-287.08 1086.27,-1261.2 1820.69,-1045.84 385.33,112.99 647.13,510.23 883.13,808.3 268.1,338.56 581.1,667.07 1013.1,775.16 37.7,9.42 75.1,17.24 112.4,23.86 v 94.58"
       style="fill:#0367a6;fill-opacity:1;fill-rule:nonzero;stroke:none"
       id="path1807" />
    <path
       d="m 12000,4123.66 c -57.2,-10.43 -114.8,-23.81 -172.9,-40.65 -438,-126.94 -765.5,-457.54 -1055.3,-795.04 -256.4,-298.58 -552.5,-652.01 -967.57,-709.48 -373.49,-51.72 -700.37,190.91 -969.45,420.34 -284.15,242.28 -548.8,501.98 -880.32,681.38 -533.39,288.64 -1089.7,-442.25 -1293.3,-855.1 -234.89,-476.3 -483.22,-1203.21 -1071.1,-1333.06 -297.32,-65.68 -589.39,70.57 -837.39,223.88 -296.08,183.03 -589.34,361.41 -928.38,452.48 -627.36,168.53 -1204.63,-62.28 -1779.43,-302.44 -239.54,-100.09 -523.85,-213.28 -782.95,-118.71 -224.56,81.96 -396.758,310.44 -557.414,478.32 -212.32,221.88 -443,432.73 -704.496,577.12 v -124.08 c 283.402,-141.43 534.219,-358.51 765.496,-586.6 167.34,-165.02 347.114,-393.67 575.764,-471.63 264.05,-90.03 550.49,30.34 791.69,134.42 578.43,249.57 1153.31,469.66 1783.59,279.89 336.49,-101.31 626.42,-286.98 923.32,-469.52 247.08,-151.91 537.81,-282.35 832.85,-217.82 580.08,126.88 842.63,830.88 1081.71,1301.11 200.62,394.57 740.4,1171.98 1266.01,892.76 331.53,-176.12 590.57,-443.59 872.05,-685.44 268.03,-230.3 596.59,-467.27 969.14,-396.57 405.48,76.93 690.88,445.47 940.18,743.46 282.8,338.14 605.8,668.27 1042.1,789.08 52.4,14.52 104.4,26.15 156.1,35.39 v 96.51"
       style="fill:#50d4f2;fill-opacity:1;fill-rule:nonzero;stroke:none"
       id="path1809" />
    <path
       d="m 12000,4315.99 c -59.1,-11.45 -118.6,-26.01 -178.6,-44.15 -439.7,-132.84 -775.4,-457.77 -1077.3,-790.73 -271.8,-299.66 -574.5,-626.54 -1005.19,-658.67 -396.51,-29.58 -739.51,244.53 -1023.81,489.26 -266.64,229.54 -522.99,449.57 -828.43,627.02 -573.82,333.36 -1182.58,-289.86 -1407.09,-784.3 -223.31,-491.81 -459.32,-1263.41 -1059.8,-1406.04 -325.51,-77.31 -640.06,96.84 -907.59,261.48 -274.18,168.74 -563.68,309.88 -880.47,375.36 -642.43,132.8 -1233.48,-146.71 -1823.11,-365.45 -234.88,-87.13 -511.6,-174.66 -752.62,-58.63 C 845.262,2062.59 693.477,2291.33 547.82,2466.58 383.488,2664.3 203.762,2852.23 0,2996.61 v -91.58 c 235.742,-146.9 443.156,-349.85 633.652,-562.95 153.176,-171.36 316.946,-400.64 537.098,-487.51 253.02,-99.84 534.28,5.09 771.65,100.52 573.53,230.57 1153.09,473.77 1779.27,327.58 342.28,-79.92 639.99,-250.22 936.71,-432.88 250.44,-154.17 544.95,-294.47 845.2,-226.69 598.03,134.99 834.51,885.44 1067.64,1370.17 208.3,433.09 783.65,1121.09 1326.48,824.68 331.99,-181.28 601.57,-434.84 887.83,-677.55 269.92,-228.87 595.09,-477.31 968.74,-443.87 423.83,37.92 729.53,376.48 992.93,675.95 296.1,336.63 627.6,667.49 1066.8,800.18 62.6,18.89 124.5,33.92 186,45.45 v 97.88"
       style="fill:#346272;fill-opacity:1;fill-rule:nonzero;stroke:none"
       id="path1811" />
    <path
       d="m 433.332,2622.48 c 85.695,-125.65 175.5,-265.14 287.703,-372 -90.5,101.84 -169.176,218.22 -246.324,318.82 -13.66,17.82 -27.461,35.54 -41.379,53.18"
       style="fill:#4e92aa;fill-opacity:1;fill-rule:nonzero;stroke:none"
       id="path1813" />
    <path
       d="m 0,3145.04 v -70.06 c 159.762,-129.26 302.387,-286.54 433.332,-452.5 -11.863,17.4 -23.652,34.54 -35.41,51.28 C 278.723,2843.51 148.004,3006.87 0,3145.04"
       style="fill:#4e92aa;fill-opacity:1;fill-rule:nonzero;stroke:none"
       id="path1815" />
    <path
       d="m 12000,4511.31 c -62.9,-13.34 -126.3,-30.31 -190.2,-51.25 -439.8,-143.96 -780.7,-469.06 -1092.5,-799.18 -285.7,-302.45 -603.5,-601.53 -1049.48,-590.74 -394.17,9.54 -730.92,297.86 -1016.76,542.45 -268.62,229.85 -531.13,443.56 -838.55,620.05 -593.84,340.91 -1253.59,-194.19 -1489.34,-738.73 -222.57,-514.1 -441.22,-1340.68 -1067.33,-1497.36 -334.13,-83.61 -653.56,94.79 -931.29,258.62 -279.56,164.91 -580.81,287.44 -903.95,329.22 -645.02,83.4 -1235.08,-229.4 -1832.1,-425.24 -231.37,-75.89 -500.23,-143.09 -726.602,-15.1 -50.992,28.83 -97.585,65.21 -140.863,106.43 71.141,-80.05 149.582,-151.12 240.356,-198.43 233.949,-121.92 506.949,-44.29 740.099,37.36 592.24,207.4 1183.41,502.87 1826.54,394.46 319.82,-53.92 614.86,-186.09 891.32,-352.96 272.55,-164.51 588.59,-340.26 918.46,-260.41 612.4,148.25 839.91,948.73 1062.01,1450.34 229.58,518.5 862.6,1098.44 1446.04,761.22 306.47,-177.13 566.1,-393.8 833.95,-623.45 285.17,-244.51 625.31,-525.41 1021.08,-515.23 438.71,11.28 749.11,324.51 1027.71,625.46 307.1,331.65 645.7,656.75 1085.7,795.11 62.4,19.64 124.3,35.49 185.7,47.89 v 99.47"
       style="fill:#4e92aa;fill-opacity:1;fill-rule:nonzero;stroke:none"
       id="path1817" />
    <path
       d="M 0,3202.69 C 79.3281,3117.16 152.77,3024.05 221.539,2927 153.699,3039.84 80.4531,3149.29 0,3250.53 v -47.84"
       style="fill:#68c3e3;fill-opacity:1;fill-rule:nonzero;stroke:none"
       id="path1819" />
    <path
       d="m 221.539,2927 c 9.211,-15.32 18.336,-30.69 27.356,-46.12 C 343.383,2719.18 439.07,2529.05 580.5,2397 481.34,2513.32 402.113,2653.21 323.988,2774.86 290.961,2826.28 256.859,2877.15 221.539,2927"
       style="fill:#68c3e3;fill-opacity:1;fill-rule:nonzero;stroke:none"
       id="path1821" />
    <path
       d="m 12000,4708.25 c -63.2,-14.95 -127,-33.61 -191.3,-56.35 -437.6,-154.72 -781.1,-479.52 -1100.1,-806.07 -298.8,-305.82 -629.9,-576.83 -1086.52,-521.33 -388.64,47.24 -716.82,351.33 -1003.15,596.99 -268.65,230.47 -535.16,439.5 -843.77,614.07 -614.74,347.74 -1331.2,-97.05 -1581.27,-695.5 -225.76,-540.29 -429.14,-1417.41 -1084.32,-1591.01 -343.65,-91.06 -670.69,92.21 -960.04,254.52 -287.54,161.29 -601.94,264.09 -931.88,282 -652.06,35.4 -1235.96,-313.67 -1848.31,-486.85 -228.51,-64.62 -489.059,-111.15 -700.625,28.3 -31.375,20.68 -60.649,44.25 -88.215,69.98 54.676,-64.13 115.391,-121.12 185.379,-163.87 218.949,-133.73 483.641,-76.72 713.421,-6.4 603.6,184.73 1191.24,515.03 1839.19,455.53 326.45,-29.99 634.04,-142.9 917.26,-305.96 283.25,-163.08 606.3,-343.88 944.94,-256.56 640.14,165.04 850.95,1016.69 1074.77,1543.5 242.46,570.68 929.49,1061.83 1533.63,717.52 308.16,-175.62 572.92,-386.87 841.82,-617 286.23,-244.95 619.14,-540.86 1010.99,-569.15 451.9,-32.62 776.4,252.68 1068.7,556.74 315.7,328.44 658.3,653.44 1097.3,802.72 64.6,21.96 128.6,39.84 192.1,54.02 v 100.16"
       style="fill:#68c3e3;fill-opacity:1;fill-rule:nonzero;stroke:none"
       id="path1823" />
    <path
       d="M 2889.79,0 C 3250.66,142.559 3624.36,211.16 4039.93,108.063 4155.12,79.4805 4267.77,42 4379.06,0 h 234.22 C 4432.86,79.1719 4250.95,154.25 4062.23,205.27 3538.04,346.988 3078.64,215.621 2626.75,0 h 263.04"
       style="fill:#61e6f5;fill-opacity:1;fill-rule:nonzero;stroke:none"
       id="path1825" />
    <path
       d="m 7070.51,0 c 152.5,104.602 298.08,219.27 437.13,334.641 226.65,188.05 444.11,386.949 668.29,577.918 248.35,211.551 487.95,433.521 831.55,326.811 562.8,-174.78 1003.62,-871.132 1658.02,-581.249 282.7,125.231 509.8,383.009 747,576.819 180.8,147.75 374,281.57 587.5,368.2 v 201.1 c -226.9,-92.94 -427.5,-243.61 -613,-409.15 -231.7,-206.85 -452.6,-483.008 -737.2,-616 C 9985.41,468.641 9547.46,1224.67 8983.13,1403.48 8638.29,1512.74 8403.42,1275.79 8162.17,1058.03 7942.7,859.93 7730.57,653.691 7508.94,458 7326.99,297.34 7132.73,136.582 6924.73,0 h 145.78"
       style="fill:#61e6f5;fill-opacity:1;fill-rule:nonzero;stroke:none"
       id="path1827" />
    <path
       d="M 541.172,0 H 702.711 C 481.066,197.59 255.863,458.711 0,653.93 V 530.391 C 194.418,370.992 369.934,172.898 541.172,0"
       style="fill:#61e6f5;fill-opacity:1;fill-rule:nonzero;stroke:none"
       id="path1829" />
    <path
       d="m 6783.12,0 c 263.41,161.469 503.25,370.219 723.29,576.559 216.49,203.023 423.19,416.293 637.8,621.291 234.08,223.6 463.64,475.12 809.77,363.3 565.86,-182.8 1002.29,-996.38 1676.42,-665.849 287,140.709 501.9,434.829 728.6,654.169 190.3,184.09 398.9,352.66 641,451 v 203.68 c -260.2,-102.82 -477.9,-291.64 -673.4,-496.21 -221.8,-232.08 -430.7,-544.92 -720.7,-693.81 -684.13,-351.368 -1120.31,521.26 -1687.8,708.29 -347.59,114.56 -570.92,-152.1 -797.35,-381.53 C 7911.45,1128.8 7710.63,908.359 7499.71,697.859 7243.04,441.691 6956.65,178.223 6631.92,0 h 151.2"
       style="fill:#0367a6;fill-opacity:1;fill-rule:nonzero;stroke:none"
       id="path1831" />
    <path
       d="M 875.906,0 H 1070.95 C 955.191,82.7891 847.676,179.609 749.93,263.672 516.41,464.5 273.539,716.488 0,896.039 V 773.32 C 265.5,584.941 500.063,326.879 728.223,127.492 775.137,86.4922 824.441,43.0625 875.906,0"
       style="fill:#0367a6;fill-opacity:1;fill-rule:nonzero;stroke:none"
       id="path1833" />
    <path
       d="M 2401.05,0 C 2936.04,280.391 3466.1,479.691 4083.65,299.27 4333.83,226.18 4572.15,110.152 4811.39,0 h 192.87 C 4705.76,134.172 4414.3,298.629 4105.15,396 3424.69,610.309 2849.74,361.512 2253.18,38.7617 2229.46,25.9219 2205.31,12.9414 2180.82,0 h 220.23"
       style="fill:#0367a6;fill-opacity:1;fill-rule:nonzero;stroke:none"
       id="path1835" />
    <path
       d="m 6472.09,0 c 389.48,179.43 720.8,500.922 1009.39,806.41 204.15,216.11 398.26,441.53 600.53,659.4 205.65,221.5 435.51,528.44 771.54,423.55 578.5,-180.58 994.18,-1105.18 1693.65,-779.67 317.5,147.77 531.1,513.44 759.1,766.98 197.3,219.48 420.6,421.62 693.7,524.95 v 204.46 c -296.4,-104.66 -530.2,-329.92 -733.3,-572.04 -223.3,-266.27 -430.7,-653.25 -753,-809.03 C 9802.86,881.461 9387.76,1862.59 8805.89,2047.55 8468.48,2154.8 8246.18,1831.5 8048.71,1605.48 7852.24,1380.6 7664.41,1148.22 7466.24,924.828 7138.96,555.891 6750.82,156.469 6270.81,0 h 201.28"
       style="fill:#50d4f2;fill-opacity:1;fill-rule:nonzero;stroke:none"
       id="path1837" />
    <path
       d="m 1305.16,0 h 628.69 c 122.76,46.8008 240.77,110.398 350.06,169.441 602.44,325.399 1176.12,544.168 1855.6,313.95 C 4504.49,359.73 4842.59,143.172 5199,0 h 221.39 C 4985.06,131.832 4589.81,422.602 4158.41,578.891 3478.96,825.059 2902.01,619.109 2293.89,292.77 2053.65,163.84 1769.83,10.1914 1487.81,71.8398 1238.01,126.441 1012.17,348.922 820.492,508 567.199,718.219 299.328,968.02 0,1134.92 V 1014.1 C 291.465,837.43 550.871,580.16 798.848,371.75 947.52,246.813 1118.34,88.6914 1305.16,0"
       style="fill:#50d4f2;fill-opacity:1;fill-rule:nonzero;stroke:none"
       id="path1839" />
    <path
       d="m 12000,3006.58 c -342.9,-98.65 -595.2,-364.39 -807.6,-647.55 -217.2,-289.58 -408.7,-712.65 -731.7,-897.14 -713.4,-407.52 -1168.45,640.66 -1721.82,874 -370.22,156.12 -584.97,-218.24 -781.47,-473.28 -183,-237.5 -356.71,-482.14 -541.8,-718.04 C 7066.88,700.109 6634.19,194.59 6049.52,90.9688 5354.68,-32.168 4802.71,507.531 4204.04,759.82 3507.49,1053.36 2917.99,851.16 2281.85,519.531 2046.18,396.672 1764.59,250.742 1491.85,331.813 1251.7,403.199 1033.67,635.449 842.617,790.172 584.461,999.219 306.395,1224.96 0,1368.71 V 1250.75 C 306.539,1093.54 582.391,851.68 840.781,639.781 1032.25,482.77 1254.91,254.859 1501.99,196.77 1781.36,131.102 2064.21,284.852 2302.64,412 2916.13,739.172 3495.95,932.492 4174.79,670.84 4788.83,434.172 5339.44,-93.8711 6039.66,17.2305 6632.37,111.281 7079.74,597.891 7446.98,1038.11 c 192.17,230.35 373.74,469.38 564.36,701.01 189.35,230.1 403.73,569.51 742.61,459.79 585.24,-189.49 1001.03,-1224.68 1723.05,-863.6 327.4,163.73 528.8,571.56 748.1,850.07 208.6,265.09 453.1,514.5 774.9,618.34 v 202.86"
       style="fill:#346272;fill-opacity:1;fill-rule:nonzero;stroke:none"
       id="path1841" />
    <path
       d="m 12000,3376.19 c -404.2,-86.08 -680.5,-402.27 -906,-731.34 -212.5,-310.26 -398.5,-767.57 -733.1,-964.27 C 9628.81,1250.23 9160.02,2380.92 8603.39,2627.76 8231.9,2792.5 8031.69,2394.21 7850.08,2134.32 7677.17,1886.88 7515.3,1631.82 7343.32,1383.73 7025.79,925.691 6623.36,377.621 6045.05,257.391 5353.88,113.691 4799.47,693.402 4217.48,961.09 c -354.1,162.87 -737.66,242.85 -1120.71,142.4 -288.6,-75.67 -543.2,-200.408 -806.63,-335.4 C 2057.28,648.75 1777.1,504.082 1509.7,593.148 1274.38,671.539 1064.43,910.859 873.008,1062.97 606.695,1274.59 316.613,1484.37 0,1610.76 v -128.61 c 312.348,-134.02 597.457,-350.83 860.355,-560.92 191.455,-153 405.535,-389.671 643.065,-464.781 269.73,-85.289 550.22,60.59 783.97,181.742 263.47,136.571 517.91,263.551 806.7,341.469 381.89,103.05 765.31,28.88 1121.17,-129.68 590.62,-263.14 1143.35,-823.3003 1838.27,-687.89 581.76,113.351 1000.13,639.82 1333.5,1092.22 178.82,242.67 346,493.75 522.78,737.91 187.43,258.87 392.91,651.16 765.43,490.43 555.06,-239.5 1016.52,-1339.56 1740.36,-913.01 328.3,193.45 514.2,637.26 728.3,939.19 218.2,307.66 482.2,600.01 856.1,693.01 v 174.35"
       style="fill:#4e92aa;fill-opacity:1;fill-rule:nonzero;stroke:none"
       id="path1843" />
    <path
       d="m 12000,3564.37 c -10.6,-2.05 -21.2,-4.08 -31.8,-6.37 -421.6,-90.72 -714.4,-415.14 -958.4,-750.97 -219.3,-301.9 -436.5,-735.61 -788.3,-900.76 -732.14,-343.64 -1216.6,716.59 -1774.54,982.87 -348.7,166.42 -566.85,-167.98 -759.15,-414.11 C 7505.79,2242.06 7345.48,1994.25 7188.22,1744.01 6900.4,1286.04 6534.43,695.52 5962.86,579.828 5298.15,445.289 4739.16,1046.98 4170.05,1286.46 3491.1,1572.16 2905.99,1367.33 2278.1,1063.55 2040.51,948.609 1756.3,813.492 1488.93,907.051 1255.82,988.621 1052.55,1223.22 865.313,1378.27 601.875,1596.41 315.07,1807.82 0,1934.75 V 1771.5 c 316.539,-126.45 605.668,-337.15 871.23,-552.16 189.55,-153.46 396.39,-390.34 630.76,-470.18 267.59,-91.168 549.94,48.942 785.28,166.219 635.92,316.901 1224.52,509.881 1909.98,207.421 575.28,-253.839 1132.18,-844.679 1810.18,-705.78 574.6,117.722 959.34,686.45 1262.1,1144.33 164.65,249.02 325.82,500.4 503.1,740.66 186.78,253.15 395.92,619.76 756.01,454.05 557.12,-256.37 1032.92,-1351.87 1765.16,-964.36 342.7,181.39 544.3,627.53 759.8,933.26 236.7,335.88 524.4,659.51 944,743.9 0.8,0.16 1.6,0.29 2.4,0.45 v 95.06"
       style="fill:#68c3e3;fill-opacity:1;fill-rule:nonzero;stroke:none"
       id="path1845" />
    <path
       d="m 11689.5,0 c 102.5,29.6016 205.8,56.8516 310.5,79.5508 V 265.152 C 11736.5,197.48 11485.6,96.2695 11231.7,0 h 457.8"
       style="fill:#50d4f2;fill-opacity:1;fill-rule:nonzero;stroke:none"
       id="path1847" />
    <path
       d="M 9346.47,0 C 9231.24,39.3125 9114.63,77.2109 8995,107.691 8756.25,168.531 8548.47,101.949 8346.74,0 h 999.73"
       style="fill:#50d4f2;fill-opacity:1;fill-rule:nonzero;stroke:none"
       id="path1849" />
    <path
       d="m 8106.42,0 c 7.42,4.53125 14.83,9.10156 22.26,13.6211 C 8401.04,179.602 8672.83,353.281 9003.5,269 9266.42,201.98 9512.1,86.9492 9761,0 h 1128.2 c 377.5,137.102 726.6,333.691 1110.8,446.621 V 635.68 C 11538.8,483.68 11143.1,191.762 10671.5,49.6094 10052.2,-137.051 9576.61,290.492 9008.13,435.648 8676.93,520.219 8404.99,331.559 8138.3,159.313 8056.59,106.531 7975.21,53.1914 7893.73,0 h 212.69"
       style="fill:#346272;fill-opacity:1;fill-rule:nonzero;stroke:none"
       id="path1851" />
    <path
       d="m 7707.68,0 c 141.73,96.5391 282.13,195.09 423.62,291.941 282.54,193.379 562.54,402.52 920.45,293.059 539.62,-165.02 992.95,-596.3906 1591.55,-425.039 305.2,87.34 575.4,297.019 853.8,445.75 162,86.578 329.2,164.039 502.9,221.039 v 193.11 C 11820.1,955.969 11648.8,867.242 11484.1,768.23 11212.3,604.898 10948.9,375.02 10643.4,281.699 10033.8,95.5391 9590.61,582.629 9047.96,751.629 8689.47,863.27 8410.45,637.59 8134.7,437.629 7933.67,291.852 7735.34,142.172 7531.76,0 h 175.92"
       style="fill:#4e92aa;fill-opacity:1;fill-rule:nonzero;stroke:none"
       id="path1853" />
    <path
       d="M 155.055,0 C 104.688,57.4922 53.2227,113.789 0,166.93 V 46.9727 C 14.5703,31.5391 28.9883,15.8594 43.3008,0 H 155.055"
       style="fill:#4e92aa;fill-opacity:1;fill-rule:nonzero;stroke:none"
       id="path1855" />
    <path
       d="m 4067.42,0 c -7.72,1.92188 -15.44,3.83203 -23.19,5.67188 C 3759.69,73.3711 3496.75,60.6992 3244.79,0 h 822.63"
       style="fill:#68c3e3;fill-opacity:1;fill-rule:nonzero;stroke:none"
       id="path1857" />
    <path
       d="m 7373.06,0 c 20.02,14.1094 39.97,28.2695 59.76,42.5 238.97,171.82 468.15,356.859 701.7,535.949 268.87,206.172 546.07,448.041 905.14,334.16 545.63,-173.05 979.64,-714.109 1600.04,-513.308 306.7,99.25 563.4,348.859 828.8,526.097 168,112.162 344.1,213.052 531.5,283.692 v 197.37 c -196.8,-77.54 -378.7,-191.99 -550.4,-318.87 -259,-191.32 -508.8,-461.461 -817.3,-566.969 C 10000.5,304.5 9575.2,901.309 9026.46,1078.71 8666.73,1195 8392.26,936.219 8130.82,723.809 7901.41,537.43 7676.94,344.77 7442.27,165.012 7369.22,109.063 7294.4,53.6602 7217.85,0 h 155.21"
       style="fill:#68c3e3;fill-opacity:1;fill-rule:nonzero;stroke:none"
       id="path1859" />
    <path
       d="M 270.02,0 H 398.91 C 271.715,138.34 141.191,283.469 0,407.73 V 284.879 C 94.1914,196.34 183.301,98.3008 270.02,0"
       style="fill:#68c3e3;fill-opacity:1;fill-rule:nonzero;stroke:none"
       id="path1861" />
  </g>
  <path
     d="m 12.7708,59.0561 h 2.395 c -0.0918,-2.3921 -0.1381,-4.8408 -0.1381,-7.335 0,-26.6911 5.4746,-48.3357 12.225,-48.3357 6.7504,0 12.225,21.6446 12.225,48.3357 0,2.4942 -0.05,4.9429 -0.1418,7.335 h 2.3987 V 0 H 12.7708 Z"
     style="fill:#ed6b1c;fill-rule:evenodd"
     id="path2" />
  <path
     d="m 0,8.0653 h 53.79 v 59.0561 h -2.7183 c 0.0547,-1.9122 0.0852,-3.856 0.0852,-5.8303 0,-26.6912 -5.1373,-48.3358 -11.4727,-48.3358 -6.3353,0 -11.4727,21.6446 -11.4727,48.3358 0,1.9743 0.0278,3.9181 0.0825,5.8303 h -2.0485 c 0.0547,-1.9122 0.0853,-3.856 0.0853,-5.8303 0,-26.6912 -5.1374,-48.3358 -11.4727,-48.3358 -6.3363,0 -11.4727,21.6446 -11.4727,48.3358 0,1.9743 0.0278,3.9181 0.0825,5.8303 H 0 Z"
     style="fill:#ed6b1c;fill-rule:evenodd"
     id="path4" />
</svg>
